<?xml version="1.0" ?><!DOCTYPE svg  PUBLIC '-//W3C//DTD SVG 1.1//EN'  'http://www.w3.org/Graphics/SVG/1.1/DTD/svg11.dtd'><svg enable-background="new 0 0 24 24" height="24px" id="Layer_1" version="1.1" viewBox="0 0 24 24" width="24px" xml:space="preserve" xmlns="http://www.w3.org/2000/svg" xmlns:xlink="http://www.w3.org/1999/xlink"><path d="M23.7,0.3c-0.4-0.4-1-0.4-1.4,0l-3.4,3.4c-1.1-0.5-2.5-0.3-3.4,0.6c-0.9,0.9-1.1,2.3-0.6,3.4l-0.3,0.3  c-1.1-0.5-2.5-0.3-3.4,0.6c-0.9,0.9-1.1,2.3-0.6,3.4l-0.8,0.8l-1.4-1.4c-0.4-0.4-1-0.4-1.4,0l-1.4,1.4c-0.4,0.4-0.4,1,0,1.4L7,15.5  l-0.7,0.7l-1.4-1.4c-0.4-0.4-1-0.4-1.4,0l-1.4,1.4c-0.4,0.4-0.4,1,0,1.4l1.4,1.4l-3.2,3.2c-0.4,0.4-0.4,1,0,1.4c0.4,0.4,1,0.4,1.4,0  l3.2-3.2l1.4,1.4c0.4,0.4,1,0.4,1.4,0l1.4-1.4c0.4-0.4,0.4-1,0-1.4l-1.4-1.4l0.7-0.7l1.4,1.4c0.4,0.4,1,0.4,1.4,0l1.4-1.4  c0.4-0.4,0.4-1,0-1.4l-1.4-1.4l0.8-0.8c1.1,0.5,2.5,0.3,3.4-0.6c0.9-0.9,1.1-2.3,0.6-3.4L16.4,9c1.1,0.5,2.5,0.3,3.4-0.6  c0.9-0.9,1.1-2.3,0.6-3.4l3.4-3.4C24.1,1.3,24.1,0.7,23.7,0.3z M8.5,19.8L7,21.2l-1.4-1.4l-1.4-1.4l-1.4-1.4l1.4-1.4l1.4,1.4L7,18.4  L8.5,19.8z M12,16.2l-1.4,1.4l-1.4-1.4l-1.4-1.4l-1.4-1.4L7.8,12l1.4,1.4l1.4,1.4L12,16.2z M14.8,12c-0.5,0.5-1.3,0.7-1.9,0.5  c-0.2,0-0.3-0.1-0.4-0.2c0,0,0,0-0.1,0c-0.1-0.1-0.3-0.2-0.4-0.3s-0.2-0.3-0.3-0.4c0,0,0,0,0-0.1c-0.1-0.1-0.1-0.3-0.2-0.4  c-0.2-0.7,0-1.4,0.5-1.9c0.5-0.5,1.3-0.7,1.9-0.5c0.2,0,0.3,0.1,0.4,0.2c0,0,0,0,0.1,0C14.6,9,14.7,9,14.8,9.2  C15,9.3,15,9.4,15.1,9.6c0,0,0,0,0,0.1c0.1,0.1,0.1,0.3,0.2,0.4C15.5,10.7,15.4,11.5,14.8,12z M19.1,7.8c-0.5,0.5-1.3,0.7-1.9,0.5  c-0.2,0-0.3-0.1-0.4-0.2c0,0,0,0-0.1,0c-0.1-0.1-0.3-0.2-0.4-0.3c-0.1-0.1-0.2-0.3-0.3-0.4c0,0,0,0,0-0.1c-0.1-0.1-0.1-0.3-0.2-0.4  c-0.2-0.7,0-1.4,0.5-1.9c0.5-0.5,1.3-0.7,1.9-0.5c0.2,0,0.3,0.1,0.4,0.2c0,0,0,0,0.1,0c0.1,0.1,0.3,0.2,0.4,0.3s0.2,0.3,0.3,0.4  c0,0,0,0,0,0.1c0.1,0.1,0.1,0.3,0.2,0.4C19.8,6.5,19.6,7.2,19.1,7.8z"/></svg>