<?xml version="1.0" ?><!DOCTYPE svg  PUBLIC '-//W3C//DTD SVG 1.1//EN'  'http://www.w3.org/Graphics/SVG/1.1/DTD/svg11.dtd'><svg enable-background="new 0 0 64 64" height="64px" id="Layer_1" version="1.1" viewBox="0 0 64 64" width="64px" xml:space="preserve" xmlns="http://www.w3.org/2000/svg" xmlns:xlink="http://www.w3.org/1999/xlink"><g><g><path d="M21.62,33.828V32.6h3.501c1.153-0.602,2.369-1.432,3.676-2.584c0.397-0.352,0.755-0.637,1.123-0.938h-8.3    v-3.251h13.327v0.032c1.03-0.434,1.946-0.674,2.827-0.86V9.962c0-0.05,0.017-0.102,0.017-0.152V9.607    c0.017-4.674,2.794-3.928,2.794-3.928c1.64,0.169,2.014,2.455,2.097,3.759c0.085,0.83,0.661,0.897,0.661,0.897h1.27    c0.489,0,0.593-0.373,0.593-0.661c-0.017-0.102-0.017-0.203-0.034-0.321V9.335c-0.118-0.964-0.319-2.438-0.591-3.233    c-0.169-0.423-0.391-0.796-0.629-1.101c-0.05-0.068-0.099-0.135-0.152-0.203c-0.065-0.067-0.119-0.135-0.185-0.186    c-0.136-0.136-0.271-0.254-0.407-0.356c-0.137-0.118-0.288-0.22-0.44-0.321c0-0.016-0.017-0.016-0.017-0.016    c-0.287-0.17-0.574-0.306-0.898-0.424c-0.456-0.17-0.863-0.237-1.167-0.289c-0.187-0.016-0.355-0.033-0.543-0.033    c-0.016,0-0.032,0-0.032,0h-0.083c-2.795,0-5.079,2.285-5.079,5.08v7.145H21.62V9.962c0-0.05,0.018-0.102,0.018-0.152V9.607    c0-4.674,2.794-3.928,2.794-3.928c1.626,0.169,2.015,2.455,2.099,3.759c0.086,0.83,0.662,0.897,0.662,0.897h1.269    c0.49,0,0.592-0.373,0.592-0.661c-0.016-0.102-0.016-0.203-0.033-0.321V9.335c-0.119-0.964-0.321-2.438-0.594-3.233    c-0.168-0.423-0.388-0.796-0.627-1.101c-0.049-0.068-0.101-0.135-0.151-0.203c-0.068-0.067-0.117-0.135-0.186-0.186    c-0.136-0.136-0.27-0.254-0.406-0.356c-0.136-0.118-0.287-0.22-0.439-0.321c0-0.016-0.019-0.016-0.019-0.016    c-0.288-0.17-0.575-0.306-0.896-0.424c-0.457-0.17-0.864-0.237-1.169-0.289c-0.187-0.016-0.354-0.033-0.542-0.033    c-0.017,0-0.033,0-0.033,0h-0.084c-2.795,0-5.079,2.285-5.079,5.08V34.07C19.712,34.074,20.65,34.012,21.62,33.828z M21.62,18.919    h13.327v3.386H21.62V18.919z" /></g><g><path d="M40.631,27.84c0,0,6.562-1.693,13.334,3.016c1.957,1.534,3.809,2.699,2.486,4.285    c-0.741,0.689-1.376,1.328-3.704-1.057c-2.274-1.536-5.869-3.832-12.116-2.912c-2.434,0.477-4.232,1.112-7.67,4.339    c-3.439,3.229-8.573,5.504-14.021,5.027c-5.45-0.477-8.308-2.541-11.324-5.133c-0.634-0.846-0.634-1.744-0.264-2.275    c0.37-0.529,1.799-1.059,2.593-0.264c0.793,0.795,4.551,3.969,8.254,4.18c3.704,0.213,7.407,0.422,12.381-3.969    C35.552,28.687,38.039,28.369,40.631,27.84z"/></g><g><path d="M59.682,53.098c0,1.621-1.313,2.934-2.933,2.934h-49.5c-1.62,0-2.934-1.312-2.934-2.934V11.761H0.042    v45.681c0,1.869,1.516,3.385,3.386,3.385h57.146c1.867,0,3.385-1.516,3.385-3.385V11.761h-4.276V53.098z"/></g></g></svg>