<?xml version="1.0" ?><svg viewBox="0 0 100 100" xmlns="http://www.w3.org/2000/svg">
    <title/>
    <circle cx="50" cy="50"  r="49.5"/>
    <path d="M78.66093,74.442c-1.64333-4.07381-5.2614-6.97376-9.61141-9.07282A31.4922,31.4922,0,0,1,62.421,61.29536a13.878,13.878,0,0,1-2.73424-3.0381c-2.83092,2.76189-6.159,4.51572-9.76329,4.51572-3.56286,0-6.84952-1.72618-9.66662-4.419A14.23566,14.23566,0,0,1,37.495,61.36439a31.93744,31.93744,0,0,1-6.54567,4.00478c-4.33619,2.09906-7.96808,4.999-9.61141,9.07282a4.66129,4.66129,0,0,0,4.33619,6.38H74.32474A4.65581,4.65581,0,0,0,78.66093,74.442Z" />
    <path d="M66.4967,35.74838c0,9.15154-7.41924,24.26752-16.57134,24.26752S33.354,44.89993,33.354,35.74838a16.57134,16.57134,0,0,1,33.14269,0Z" />
    <line  stroke="#fff" stroke-miterlimit="10" stroke-width="2" x1="52.68742" x2="52.68742" y1="64.55256" y2="80.82195"/>
    <circle cx="47.23802" cy="70.93341"  r="2.07142"/>
    <circle cx="47.23802" cy="76.45719"  r="2.07142"/>
    <path d="M66.4967,35.74838c0,9.15154-7.41924,24.26752-16.57134,24.26752S33.354,44.89993,33.354,35.74838a16.57134,16.57134,0,0,1,33.14269,0Z" />
    <path d="M62.421,61.29536c-3.56286,3.411-7.80238,5.62046-12.49754,5.62046-4.6676,0-8.87947-2.18192-12.42851-5.55143a14.23566,14.23566,0,0,0,2.76189-3.01045c2.8171,2.69286,6.10375,4.419,9.66662,4.419,3.60425,0,6.93237-1.75383,9.76329-4.51572A13.878,13.878,0,0,0,62.421,61.29536Z" />
</svg>