<?xml version="1.0" ?><!DOCTYPE svg  PUBLIC '-//W3C//DTD SVG 1.1//EN'  'http://www.w3.org/Graphics/SVG/1.1/DTD/svg11.dtd'><svg enable-background="new 0 0 141.732 141.732" height="141.732px" id="Livello_1" version="1.1" viewBox="0 0 141.732 141.732" width="141.732px" xml:space="preserve" xmlns="http://www.w3.org/2000/svg" xmlns:xlink="http://www.w3.org/1999/xlink"><g id="Livello_83"><path d="M52.152,8.814h37.202V4.536L47.357,0.859v0.586l4.898,7.218L52.152,8.814z M47.357,16.464h41.998V9.413h-37.61   l-4.389,6.465L47.357,16.464L47.357,16.464z M70.976,45.753h-0.219H31.447c-4.301,0-7.788,3.485-7.788,7.787v79.487h0.008   c0.087,4.228,3.533,7.627,7.779,7.627s7.693-3.399,7.779-7.627h0.008V89.974h-0.014V69.173c0-1.479,1.198-2.675,2.676-2.675   c1.479,0,2.676,1.196,2.676,2.675v20.804l0,0v20.082l43.375-64.307L70.976,45.753L70.976,45.753z M91.188,25.486   c0-2.987-0.658-5.823-1.828-8.377H52.372c-1.172,2.554-1.827,5.39-1.827,8.377c0,11.119,9.028,20.144,20.213,20.261v0.006   c0.037,0,0.071-0.004,0.108-0.004s0.072,0.004,0.109,0.004v-0.006C82.157,45.63,91.188,36.605,91.188,25.486 M118.073,133.027   V53.54c0-4.302-3.485-7.787-7.789-7.787h-3.44L44.572,138.07v2.804h52.589V89.974h-0.002V69.173c0-1.479,1.199-2.675,2.679-2.675   c1.477,0,2.676,1.196,2.676,2.675v20.804h-0.017v43.054h0.011c0.086,4.228,3.53,7.627,7.776,7.627c4.248,0,7.695-3.399,7.781-7.627   L118.073,133.027L118.073,133.027z"/></g><g id="Livello_1_1_"/></svg>