<?xml version="1.0" ?><svg viewBox="0 0 64 64" xmlns="http://www.w3.org/2000/svg">
    <path d="M36.96 64c-2.633 0-6.506-.976-8.172-2.553-.827-.782-1.32-1.547-1.6-2.25-1.942-.31-4.208-1.16-4.884-3.39-.754-2.49 1.27-4.576 3.143-5.904-1.896-.172-4.462-.808-6.26-2.812-2.53-2.824-2.82-3.394-4.442-8.715-.447-1.467-1.176-3.687-1.975-6.12-4.522-13.765-4.54-14.37-3.865-15.65.41-.78 1.804-2.04 3.726-3.253-.115-.178-.212-.37-.29-.57-.903.972-1.91 1.143-2.51 1.143-1.26 0-2.18-.722-2.623-1.068-1.088-.853-1.483-2.357-1.01-3.83.483-1.5 1.73-2.512 3.183-2.578.036-.003.137-.005.173-.005 1.198 0 2.762.48 3.56 1.822.07.12.134.242.187.366.592-.567 1.353-.912 2.18-.95l.172-.003c.41 0 .86.056 1.31.183-.002-.398.057-.808.183-1.217-.812.7-1.66.833-2.187.833-1.26 0-2.18-.722-2.623-1.07-1.088-.853-1.484-2.356-1.01-3.83.483-1.5 1.732-2.513 3.183-2.578l.17-.002c1.2 0 2.764.48 3.563 1.822.512.86.584 1.887.22 2.892.54-.414 1.187-.662 1.88-.693l.174-.003c1.198 0 2.763.48 3.562 1.823.614 1.034.595 2.31-.054 3.498-.118.215-.24.41-.368.585h.053c2.456 0 5.57.417 6.457 2.408.183.412.688 1.92 2.303 6.82 1.66-7.44 1.8-7.61 2.272-8.175.575-.69 1.905-1.33 3.562-1.794-.724-.875-.94-2.134-.543-3.373.48-1.5 1.73-2.514 3.18-2.58.037-.002.138-.004.174-.004 1.198 0 2.763.48 3.562 1.823.084.14.156.288.217.437-.23-.71-.23-1.52.028-2.325.482-1.5 1.73-2.514 3.183-2.58.036-.002.137-.004.173-.004 1.198 0 2.763.48 3.562 1.823.612 1.03.595 2.298-.046 3.482.023-.003.205-.01.24-.01 1.2 0 2.764.48 3.563 1.824.614 1.034.595 2.31-.054 3.498-.304.557-.643.973-.992 1.283C56.818 14.685 58 17.25 58 18.517c0 1.984-7.788 23.65-9.47 26.345-2.3 3.682-4.717 4.12-6.162 4.38l-.315.06c-.323.064-.65.114-.978.15l-1.06 3.805c1.976 1.26 3.895 3.506 3.164 6.79-.265 1.19-1.4 3.953-6.22 3.953zm7.712-55.552c1.064.047 2.117.176 3.142.387.247.05.49.108.726.172.032-.183.078-.367.137-.55.046-.143.098-.28.157-.415-.102.01-.195.012-.28.012-1.264 0-2.184-.722-2.625-1.07-.434-.34-.758-.782-.96-1.286.278.863.178 1.83-.298 2.75z" />
    <path d="M47.328 11.19c-5.57-1.15-10.3.794-10.742 1.323-.442.53-3.536 15.54-3.67 15.495-.132-.044-4.596-13.905-4.95-14.7-.354-.795-4.818-1.633-9.195-.22-4.375 1.412-7.477 4.145-7.735 4.634-.442.84 4.465 14.877 6.012 19.953 1.547 5.076 1.68 5.297 3.934 7.813 2.255 2.516 6.588 2.03 6.588 2.03l.884 3.356s-4.42 2.34-3.846 4.238c.575 1.898 4.774 1.854 4.774 1.854s-.62 1.148 1.06 2.737c1.68 1.59 9.594 3.4 10.39-.177.795-3.576-3.67-4.988-3.67-4.988l2.078-7.46s1.017.132 2.343-.132c1.327-.265 3.007-.31 4.908-3.355 1.9-3.045 9.106-24.102 9.106-25.073s-2.696-6.18-8.266-7.328zM33.846 44.737c.133 0 1.194 1.28 1.194 1.28l-.75 4.06s-2.034.354-2.123.09c-.088-.266-1.105-3.84-1.105-3.84.22 0 1.37-.266 1.857-.707.484-.44.793-.882.926-.882zM19.39 15.028c2.918-.882 6.145-.66 6.278-.308.133.353-2.917 2.428-6.056 3.178s-5.79.927-5.923.397c-.078-.302 2.783-2.383 5.7-3.266zm-5.658 5.475c.08-.106 2.3-.044 2.3-.044s-1.548.573-1.504.882c.044.31 0 1.236.486 1.104.486-.132.884-.618 1.945-.84 1.06-.22 1.856.09 2.12-.308.266-.397.4-1.148.4-1.148l-.576-.177s3.67-.662 5.172-1.5c1.503-.84 2.343-1.767 2.564-1.458.22.31 1.15 3.31 1.017 3.487-.133.177-2.033 1.324-2.696 2.03-.662.707-1.193.884-2.43.884-1.238 0-2.387-.662-3.934-.44-1.547.22-3.536 1.456-3.67 1.412-.133-.044-1.46-3.532-1.194-3.885zM24.43 45.09c-2.254-.794-3.448-2.515-5.26-7.68-1.812-5.165-3.757-11.566-3.713-11.875.04-.28 2.166-1.545 4.42-1.368 2.254.177 3.625.883 4.51.397.883-.486 3.314-2.56 3.845-2.516.53.044 3.315 12.096 3.315 12.096l-1.326-1.148s-.706.706-.485.927c.22.22 1.9 1.722 1.857 1.986-.044.264-.398 1.853-.53 1.676-.133-.177-1.105-1.59-1.37-1.413-.265.177-.354 1.015-.133 1.236.22.22 1.458 1.765 1.458 1.765s1.15 3.267 1.46 3.664c.308.396-.355.573-.355.573S30 40.898 29.646 40.765c-.354-.132-1.06.265-.884.53.177.265 2.652 2.78 2.475 2.87-.177.087-1.282.705-1.415.396-.133-.308-1.636-1.94-1.636-1.94s-.84.264-.663.66c.177.398 1.9 1.678 1.503 1.81-.396.134-2.34.796-4.596 0zm5.216 10.684c-.265 0-3.094 0-3.67-1.015-.574-1.016.84-1.943 1.504-2.252.663-.31 1.503-.44 1.503-.44s.398 1.5.707 1.676c.31.177 1.503.31 2.254.044.75-.265 1.06-.795 1.06-.927 0-.13-.308-1.456-.308-1.456.177 0 1.15.044 1.194.177.044.133-.486 2.56-.486 2.56s-1.238-.176-2.254.575c-1.017.75-1.238 1.06-1.504 1.06zm9.725 2.252c.178 1.236-.087 1.677-1.635 2.03-1.547.354-5.128-.264-6.233-1.014-1.105-.75-1.105-2.163-.398-2.825s1.503-.574 1.99-.44c0 0-.222 1.5-.09 1.632.134.13 2.83 1.456 3.272.75.442-.707.53-2.076.663-2.076s2.255.706 2.43 1.942zm10.17-29.312c-.09-.132-1.24-2.075-1.37-2.075-.134 0-.708.352-.53.75.176.396 1.635 2.34 1.635 2.56s-.354 2.03-.53 1.81c-.177-.222-1.238-2.076-1.37-2.076-.133 0-.575-.044-.442.618.133.662 1.282 2.737 1.282 2.737s-.442 1.94-.62 1.72-1.28-2.295-1.28-2.295-.576.618-.576.84 1.458 2.868 1.458 2.868-.62 1.854-.796 1.766c-.177-.09-1.37-2.606-1.547-2.606-.177 0-.928.486-.75.84.176.352 1.59 3 1.635 3.354.044.353-.53 1.81-.663 1.633-.133-.176-1.503-3.31-1.724-3.354-.22-.044-.84.132-.796.486.044.353 1.945 3.885 1.945 3.885s-.62 1.545-.84 1.413c-.22-.132-1.415-3.31-1.68-3.31-.265 0-.75.087-.707.308s1.59 3.708 1.46 3.796c-.134.088-.84.84-1.24.486-.397-.353-1.237-2.56-1.237-2.56s-.796-.044-.707.353c.09.397.885 2.34.885 2.34s-.354.44-.575.088c-.22-.352-.973-2.515-1.194-2.603s-.796-.044-.84.265c-.044.31.31 2.075.31 2.075s-1.68.088-3.36-2.825c-1.68-2.914-1.106-6.18-.752-8.387.354-2.207 2.254-10.153 2.3-10.595.02-.22 1.28-1.06 2.342-.397 1.06.662 1.768 2.958 4.774 3.178 3.006.222 4.818-.705 5.835-.53 1.017.178 1.326.354 1.326.354s-.973 3.222-1.06 3.09zm1.767-4.46c-.486.133-2.078-.53-3.492-.352-1.415.177-2.343.84-4.11.44-1.77-.396-2.918-2.56-3.935-2.78-1.017-.22-2.918.132-2.918-.177 0-.31.663-3.93.796-4.017.147-.098 3.492 2.516 7.073 2.693 3.582.178 7.604 0 7.78.09.177.088-.707 3.973-1.193 4.105zm1.503-6.576c-.088.265-5.128.795-7.868.44-2.74-.352-6.498-2.78-6.454-3.84.023-.558 3.89-2.472 8.576-1.59 4.685.884 5.834 4.725 5.746 4.99zM9.49 8.848c-.974.045-1.416 1.634-.797 2.12.62.486 1.46 1.104 2.254-.353.796-1.457-.884-1.792-1.458-1.766zm6.585-4.678c.796-1.457-.885-1.792-1.46-1.766-.97.044-1.414 1.633-.795 2.12.62.484 1.46 1.102 2.255-.354zm-1.282 8.034c.62.486 1.46 1.104 2.254-.353.796-1.456-.885-1.79-1.46-1.765-.97.044-1.412 1.633-.794 2.12zm34.878-7.46c.797-1.457-.884-1.792-1.458-1.766-.973.044-1.415 1.633-.796 2.12.62.484 1.46 1.102 2.255-.354zM21.91 8.187c.796-1.457-.885-1.792-1.46-1.766-.97.045-1.414 1.634-.795 2.12s1.46 1.104 2.255-.353zm31.52 1.854c.795-1.456-.886-1.79-1.46-1.765-.973.044-1.415 1.633-.796 2.12.62.485 1.46 1.103 2.255-.354zM42.51 7.393c.796-1.457-.885-1.792-1.46-1.766-.97.044-1.414 1.633-.795 2.12.62.485 1.46 1.103 2.255-.354zM24.253 35.91c-.972.043-1.415 1.632-.796 2.118.62.486 1.46 1.104 2.254-.353.798-1.457-.883-1.792-1.457-1.766zm-6.63-9.006c-.178.353 1.414 6.754 1.767 7.107.354.354.884-.087 1.282-.396.398-.31-1.68-6.798-1.857-6.93s-1.104.043-1.193.22zm21.13 3.752c1.502.44 2.872-1.148 2.12-2.428-.75-1.28-1.176-1.514-2.52-.44-.882.705-1.103 2.427.4 2.868zm.397-2.207c.333-.178.75.043.707.53-.044.485-.707.794-.973.573-.264-.22-.397-.75.266-1.104zm4.465.617c-1.636.618-1.636 2.65-.884 3.09.752.44 3.228-.132 3.272-1.368.044-1.237-1.007-2.244-2.387-1.723zm1.238 1.677c-.133.53-.796.75-1.105.618-.31-.132-.62-.927.177-1.236.47-.182 1.06.09.928.618zm-5.482 5.254c-2.65.177-2.65 2.472-2.298 3.134.354.662 1.768 1.192 3.227.265 1.458-.927 1.19-3.54-.93-3.4zm.4 2.207c-.134.44-1.37.706-1.68.397-.31-.31-.178-1.368 1.193-1.545.572-.074.62.706.486 1.148zM27.966 28.89c.796-1.457-.885-1.792-1.46-1.766-.972.044-1.414 1.633-.795 2.12.62.485 1.46 1.103 2.255-.354z"/>
</svg>