<?xml version="1.0" ?><svg height="32" id="svg7727" version="1.1" viewBox="0 0 32 32" width="32" xmlns="http://www.w3.org/2000/svg" xmlns:cc="http://creativecommons.org/ns#" xmlns:dc="http://purl.org/dc/elements/1.1/" xmlns:inkscape="http://www.inkscape.org/namespaces/inkscape" xmlns:rdf="http://www.w3.org/1999/02/22-rdf-syntax-ns#" xmlns:sodipodi="http://sodipodi.sourceforge.net/DTD/sodipodi-0.dtd" xmlns:svg="http://www.w3.org/2000/svg"><defs id="defs7729"><pattern height="6" id="EMFhbasepattern" patternUnits="userSpaceOnUse" width="6" x="0" y="0"/><pattern height="6" id="EMFhbasepattern-6" patternUnits="userSpaceOnUse" width="6" x="0" y="0"/><pattern height="6" id="EMFhbasepattern-9" patternUnits="userSpaceOnUse" width="6" x="0" y="0"/><pattern height="6" id="EMFhbasepattern-0" patternUnits="userSpaceOnUse" width="6" x="0" y="0"/><pattern height="6" id="EMFhbasepattern-1" patternUnits="userSpaceOnUse" width="6" x="0" y="0"/><pattern height="6" id="EMFhbasepattern-2" patternUnits="userSpaceOnUse" width="6" x="0" y="0"/><pattern height="6" id="EMFhbasepattern-5" patternUnits="userSpaceOnUse" width="6" x="0" y="0"/><pattern height="6" id="EMFhbasepattern-19" patternUnits="userSpaceOnUse" width="6" x="0" y="0"/><pattern height="6" id="EMFhbasepattern-17" patternUnits="userSpaceOnUse" width="6" x="0" y="0"/><pattern height="6" id="EMFhbasepattern-8" patternUnits="userSpaceOnUse" width="6" x="0" y="0"/><pattern height="6" id="EMFhbasepattern-22" patternUnits="userSpaceOnUse" width="6" x="0" y="0"/><pattern height="6" id="EMFhbasepattern-60" patternUnits="userSpaceOnUse" width="6" x="0" y="0"/><pattern height="6" id="EMFhbasepattern-54" patternUnits="userSpaceOnUse" width="6" x="0" y="0"/><pattern height="6" id="EMFhbasepattern-4" patternUnits="userSpaceOnUse" width="6" x="0" y="0"/><pattern height="6" id="EMFhbasepattern-48" patternUnits="userSpaceOnUse" width="6" x="0" y="0"/><pattern height="6" id="EMFhbasepattern-04" patternUnits="userSpaceOnUse" width="6" x="0" y="0"/><pattern height="6" id="EMFhbasepattern-14" patternUnits="userSpaceOnUse" width="6" x="0" y="0"/><pattern height="6" id="EMFhbasepattern-18" patternUnits="userSpaceOnUse" width="6" x="0" y="0"/><pattern height="6" id="EMFhbasepattern-50" patternUnits="userSpaceOnUse" width="6" x="0" y="0"/><pattern height="6" id="EMFhbasepattern-91" patternUnits="userSpaceOnUse" width="6" x="0" y="0"/><pattern height="6" id="EMFhbasepattern-05" patternUnits="userSpaceOnUse" width="6" x="0" y="0"/><pattern height="6" id="EMFhbasepattern-57" patternUnits="userSpaceOnUse" width="6" x="0" y="0"/><pattern height="6" id="EMFhbasepattern-59" patternUnits="userSpaceOnUse" width="6" x="0" y="0"/><pattern height="6" id="EMFhbasepattern-11" patternUnits="userSpaceOnUse" width="6" x="0" y="0"/><pattern height="6" id="EMFhbasepattern-7" patternUnits="userSpaceOnUse" width="6" x="0" y="0"/><pattern height="6" id="EMFhbasepattern-96" patternUnits="userSpaceOnUse" width="6" x="0" y="0"/><pattern height="6" id="EMFhbasepattern-95" patternUnits="userSpaceOnUse" width="6" x="0" y="0"/></defs><g id="layer1" transform="translate(0,-1020.3622)"><path d="m 24.043499,1049.3403 c -1.610088,-1.6101 -3.323149,-3.4678 -4.782195,-5.2158 l 0,0 c -1.126456,-1.4286 -2.069355,-2.9927 -2.806716,-4.6558 l -0.930242,-1.9497 c -0.5578,-1.1691 -1.310949,-2.2346 -2.22691,-3.1505 l -1.813659,-1.8137 2.113055,-2.113 1.813659,1.8136 c 0.915949,0.916 1.981462,1.6691 3.150575,2.2269 l 1.949708,0.9302 c 2.004559,0.9564 3.881382,2.1604 5.586524,3.5836 l 0,0 c 1.426276,1.2142 2.976809,2.6647 4.288405,4.002" id="path7710" style="fill:none;fill-rule:evenodd;stroke:#000000;stroke-width:1.00157464;stroke-linecap:round;stroke-linejoin:round;stroke-miterlimit:4;stroke-dasharray:none;stroke-opacity:1"/><path d="m 20.997188,1035.7248 -0.704689,3.5234 -3.523446,0.7047" id="path7712" style="fill:none;fill-rule:evenodd;stroke:#000000;stroke-width:0.99999976px;stroke-linecap:butt;stroke-linejoin:miter;stroke-opacity:1"/><path d="m 19.235443,1034.6678 -0.704667,2.8187 -2.818762,0.7047" id="path7714" style="fill:none;fill-rule:evenodd;stroke:#000000;stroke-width:0.99999976px;stroke-linecap:butt;stroke-linejoin:miter;stroke-opacity:1"/><path d="m 25.452877,1047.9309 -2.341625,-2.3405 1.057021,-1.057 c -0.3892,-0.3892 -0.389179,-1.0202 1.7e-5,-1.4094 0.389186,-0.3892 1.02017,-0.3892 1.40937,0 l 1.057021,-1.057 2.341643,2.3405" id="path7716" style="opacity:1;fill:none;fill-opacity:1;stroke:#000000;stroke-width:0.99999988;stroke-linecap:round;stroke-linejoin:round;stroke-miterlimit:4;stroke-dasharray:none;stroke-dashoffset:0;stroke-opacity:1"/><path d="m 30.908221,1036.778 -0.03606,0.01 a 0.74712702,0.74713108 0 0 1 -0.814449,-0.9759 l 0.906232,-2.7185 a 0.74712698,0.74713104 0 0 0 -0.945059,-0.9451 l -2.447862,0.816 a 0.74712698,0.74713104 0 0 1 -0.945059,-0.9451 l 0.815943,-2.4479 a 0.74712698,0.74713104 0 0 0 -0.944988,-0.9449 l -2.447933,0.8158 a 0.74712698,0.74713104 0 0 1 -0.944988,-0.945 l 0.815942,-2.4478 a 0.74712698,0.74713104 0 0 0 -0.945058,-0.9451 l -2.447863,0.816 a 0.74712698,0.74713104 0 0 1 -0.945058,-0.9451 l 0.815942,-2.4478 a 0.74712698,0.74713104 0 0 0 -0.944988,-0.945 l -2.718622,0.9061 a 0.74712702,0.74713108 0 0 1 -0.975885,-0.8144 l 0.0051,-0.036" id="path7718" style="fill:none;fill-rule:evenodd;stroke:#000000;stroke-width:1px;stroke-linecap:round;stroke-linejoin:round;stroke-opacity:1"/><path d="m 17.825385,1049.8608 0.0051,-0.036 a 0.74712702,0.74713108 0 0 0 -0.975884,-0.8145 l -2.718553,0.9062 a 0.74712698,0.74713104 0 0 1 -0.945058,-0.945 l 0.815942,-2.4479 a 0.74712698,0.74713104 0 0 0 -0.945058,-0.945 l -2.447863,0.8159 a 0.74712698,0.74713104 0 0 1 -0.9449881,-0.945 l 0.8158721,-2.4479 a 0.74712698,0.74713104 0 0 0 -0.9449881,-0.945 l -2.4478623,0.816 a 0.74712698,0.74713104 0 0 1 -0.9450588,-0.9451 l 0.8159428,-2.4478 a 0.74712698,0.74713104 0 0 0 -0.9450588,-0.9451 l -2.4478623,0.8159 a 0.74712698,0.74713104 0 0 1 -0.9449883,-0.9449 l 0.906162,-2.7187 a 0.74712702,0.74713108 0 0 0 -0.8144496,-0.9758 l -0.036059,0.01" id="path7720" style="fill:none;fill-rule:evenodd;stroke:#000000;stroke-width:1px;stroke-linecap:round;stroke-linejoin:round;stroke-opacity:1"/><path d="m 11.887608,1038.5938 a 0.99658117,0.99657678 0 0 1 0,1.4094 0.99658117,0.99657678 0 0 1 -1.409379,0 0.99658117,0.99657678 0 0 1 0,-1.4094 0.99658117,0.99657678 0 0 1 1.409379,0 z" id="circle7724" style="opacity:1;fill:none;fill-opacity:1;stroke:#000000;stroke-width:1;stroke-linecap:round;stroke-linejoin:round;stroke-miterlimit:4;stroke-dasharray:none;stroke-opacity:1"/><path d="m 17.525123,1025.9094 a 0.99658117,0.99657678 0 0 1 0,1.4094 0.99658117,0.99657678 0 0 1 -1.409379,0 0.99658117,0.99657678 0 0 1 0,-1.4094 0.99658117,0.99657678 0 0 1 1.409379,0 z" id="circle7726" style="opacity:1;fill:none;fill-opacity:1;stroke:#000000;stroke-width:1;stroke-linecap:round;stroke-linejoin:round;stroke-miterlimit:4;stroke-dasharray:none;stroke-opacity:1"/><path d="m 9.7735413,1049.1641 a 0.99658117,0.99657678 0 0 1 0,1.4094 0.99658117,0.99657678 0 0 1 -1.4093786,0 0.99658117,0.99657678 0 0 1 0,-1.4094 0.99658117,0.99657678 0 0 1 1.4093786,0 z" id="circle7728" style="opacity:1;fill:none;fill-opacity:1;stroke:#000000;stroke-width:1;stroke-linecap:round;stroke-linejoin:round;stroke-miterlimit:4;stroke-dasharray:none;stroke-opacity:1"/><path d="m 2.1981299,1031.3708 a 0.99658117,0.99657678 0 0 1 0,1.4093 0.99658117,0.99657678 0 0 1 -1.40937862,0 0.99658117,0.99657678 0 0 1 0,-1.4093 0.99658117,0.99657678 0 0 1 1.40937862,0 z" id="circle7730" style="opacity:1;fill:none;fill-opacity:1;stroke:#000000;stroke-width:1;stroke-linecap:round;stroke-linejoin:round;stroke-miterlimit:4;stroke-dasharray:none;stroke-opacity:1"/><path d="m 9.3284271,1026.134 c -0.4593665,-0.6342 -1.0974831,-1.1088 -1.8695435,-0.9781 -0.7720894,0.1308 -1.362316,0.7602 -1.4432932,1.5391 -0.081173,0.7788 0.4660906,1.3372 1.0953444,1.8033 0.6080468,0.4504 1.8242108,1.3513 1.8242108,1.3513 0.092765,0.072 0.2188413,0.086 0.3244242,0.034 l 0.070448,-0.037 c 0.6047094,-0.2973 1.0938352,-0.7865 1.3911592,-1.3912 l 0.03662,-0.07 c 0.05196,-0.1055 0.03871,-0.2317 -0.03384,-0.3244 l 9.5e-5,-10e-5 c 0,0 -0.9303957,-1.2845 -1.3956287,-1.9267 z" id="path7732" style="opacity:1;fill:none;fill-opacity:1;stroke:#000000;stroke-width:1;stroke-linecap:round;stroke-linejoin:round;stroke-miterlimit:4;stroke-dasharray:none;stroke-opacity:1"/><path d="m 6.778611,1028.1997 2.2902403,-2.2903" id="path7734" style="fill:none;fill-rule:evenodd;stroke:#000000;stroke-width:1px;stroke-linecap:butt;stroke-linejoin:miter;stroke-opacity:1"/><path d="m 7.1309557,1031.7231 1.9378956,1.2332" id="path7736" style="fill:none;fill-rule:evenodd;stroke:#000000;stroke-width:1px;stroke-linecap:round;stroke-linejoin:round;stroke-opacity:1"/><path d="m 11.887608,1025.2048 1.409379,2.4664" id="path7738" style="fill:none;fill-rule:evenodd;stroke:#000000;stroke-width:1px;stroke-linecap:round;stroke-linejoin:round;stroke-opacity:1"/><path d="m 3.6075092,1029.609 1.4093786,0.7047" id="path7740" style="fill:none;fill-rule:evenodd;stroke:#000000;stroke-width:1px;stroke-linecap:round;stroke-linejoin:round;stroke-opacity:1"/><path d="m 11.359091,1021.8575 0.70469,1.4094" id="path7742" style="fill:none;fill-rule:evenodd;stroke:#000000;stroke-width:1px;stroke-linecap:round;stroke-linejoin:round;stroke-opacity:1"/></g></svg>