<?xml version="1.0" ?><svg height="128px" version="1.1" viewBox="0 0 128 128" width="128px" xmlns="http://www.w3.org/2000/svg" xmlns:xlink="http://www.w3.org/1999/xlink"><title/><desc/><defs/><g fill="none" fill-rule="evenodd" id="128x128" stroke="none" stroke-width="1"><g id="Tooter"><g id="Content" transform="translate(5.000000, 5.000000)"><ellipse cx="34" cy="76" id="Shape-8" rx="3.5" ry="3.5" stroke="#000000" stroke-width="2"/><ellipse cx="84" cy="76" id="Shape-7" rx="3.5" ry="3.5" stroke="#000000" stroke-width="2"/><rect fill="#000000" height="2" id="Shape-9" width="64" x="27" y="83"/><rect height="25" id="Shape-3" stroke="#000000" stroke-width="2" width="64" x="27" y="63"/><rect fill="#000000" height="2" id="Shape-1" width="64" x="27" y="49"/><rect height="17" id="Shape-2" stroke="#000000" stroke-width="2" width="64" x="27" y="46"/><rect fill="#000000" height="71" id="Shape-6" width="2" x="33" y="6"/><rect fill="#000000" height="70" id="Shape-5" width="2" x="83" y="7"/><polygon id="Shape-4" points="106 112 106 6 12 6 12 112 18 112 18 118 0 118 0 112 6 112 6 6 2 6 2 -3.55271368e-15 116 -3.55271368e-15 116 6 112 6 112 112 118 112 118 118 100 118 100 112 106 112" stroke="#000000" stroke-width="2"/></g></g></g></svg>