<?xml version="1.0" ?><svg id="Toolbox" viewBox="0 0 52 40" xmlns="http://www.w3.org/2000/svg"><title/><g data-name="Toolbox" id="Toolbox-2"><path d="M214,112v18.91c0,0.65-.07,1.09-0.73,1.09H170.73c-0.65,0-.73-0.44-0.73-1.09V112c0-.65.07-1,0.73-1h13a1.12,1.12,0,0,1,1.27,1v7.09a0.9,0.9,0,0,0,1.09.91h11.82a0.9,0.9,0,0,0,1.09-.91V112a1.12,1.12,0,0,1,1.27-1h13C213.93,111,214,111.35,214,112Zm-22,5.91a2.36,2.36,0,1,0-2.36-2.36A2.36,2.36,0,0,0,192,117.91Z" transform="translate(-166 -92)"/><path d="M218,101H206V92H179.12a0.12,0.12,0,0,0-.12.12V101H166v7h52v-7Zm-38-8h25v8H180V93Z" transform="translate(-166 -92)"/></g></svg>